<svg width="209" height="76" viewBox="0 0 209 76" fill="none" xmlns="http://www.w3.org/2000/svg">
<path d="M49.9809 27.2945V36.5297H51.8003C53.8341 36.5297 55.2577 36.1853 56.0712 35.4965C56.8987 34.8077 57.3124 33.6129 57.3124 31.9121C57.3124 30.2112 56.8987 29.0164 56.0712 28.3277C55.2577 27.6389 53.8341 27.2945 51.8003 27.2945H49.9809Z" fill="white"/>
<path fill-rule="evenodd" clip-rule="evenodd" d="M4.3087 0C1.92907 0 0 1.93332 0 4.31818V71.6818C0 74.0667 1.92907 76 4.3087 76H71.9553C74.3349 76 76.264 74.0667 76.264 71.6818V4.31818C76.264 1.93332 74.3349 0 71.9553 0H4.3087ZM13.7878 22.0227V53.5454C17.3573 53.5454 20.2509 50.6455 20.2509 47.0682V41.8864H31.4535V53.5454C35.0229 53.5454 37.9166 50.6455 37.9166 47.0682V28.5C37.9166 24.9227 35.0229 22.0227 31.4535 22.0227V37.5682H20.2509V28.5C20.2509 24.9227 17.3573 22.0227 13.7878 22.0227ZM49.9809 41.7587V47.0682C49.9809 50.6455 47.0873 53.5454 43.5179 53.5454V22.0655H49.9809H51.5689C55.9029 22.0655 59.0166 22.8386 60.91 24.3848C62.8175 25.931 63.7713 28.4401 63.7713 31.9121C63.7713 35.3841 62.8175 37.8932 60.91 39.4394C59.0166 40.9856 55.9029 41.7587 51.5689 41.7587H49.9809Z" fill="white"/>
<path d="M87.4537 40.5434C87.4537 38.367 87.8802 36.4368 88.7334 34.7527C89.6123 33.0686 90.7886 31.7732 92.2622 30.8664C93.7616 29.9595 95.4291 29.5061 97.2646 29.5061C98.8674 29.5061 100.263 29.83 101.453 30.4777C102.668 31.1255 103.637 31.9416 104.361 32.9261V29.8559H109.829V51.3864H104.361V48.2384C103.663 49.2489 102.694 50.0909 101.453 50.7645C100.238 51.4123 98.8286 51.7361 97.2258 51.7361C95.4162 51.7361 93.7616 51.2698 92.2622 50.337C90.7886 49.4043 89.6123 48.0959 88.7334 46.4118C87.8802 44.7018 87.4537 42.7457 87.4537 40.5434ZM104.361 40.6211C104.361 39.2998 104.102 38.1727 103.585 37.24C103.068 36.2814 102.37 35.5559 101.491 35.0636C100.612 34.5455 99.6688 34.2864 98.6606 34.2864C97.6524 34.2864 96.7217 34.5325 95.8686 35.0248C95.0154 35.517 94.3174 36.2425 93.7745 37.2011C93.2575 38.1339 92.999 39.248 92.999 40.5434C92.999 41.8389 93.2575 42.9789 93.7745 43.9634C94.3174 44.922 95.0154 45.6605 95.8686 46.1786C96.7475 46.6968 97.6782 46.9559 98.6606 46.9559C99.6688 46.9559 100.612 46.7098 101.491 46.2175C102.37 45.6993 103.068 44.9739 103.585 44.0411C104.102 43.0825 104.361 41.9425 104.361 40.6211Z" fill="white"/>
<path d="M119.784 32.965C120.482 31.9805 121.439 31.1643 122.654 30.5166C123.895 29.843 125.304 29.5061 126.881 29.5061C128.716 29.5061 130.371 29.9595 131.845 30.8664C133.344 31.7732 134.52 33.0686 135.373 34.7527C136.252 36.4109 136.692 38.3411 136.692 40.5434C136.692 42.7457 136.252 44.7018 135.373 46.4118C134.52 48.0959 133.344 49.4043 131.845 50.337C130.371 51.2698 128.716 51.7361 126.881 51.7361C125.304 51.7361 123.908 51.4123 122.693 50.7645C121.504 50.1168 120.534 49.3007 119.784 48.3161V61.6464H114.356V29.8559H119.784V32.965ZM131.147 40.5434C131.147 39.248 130.875 38.1339 130.332 37.2011C129.815 36.2425 129.117 35.517 128.238 35.0248C127.385 34.5325 126.454 34.2864 125.446 34.2864C124.464 34.2864 123.533 34.5455 122.654 35.0636C121.801 35.5559 121.103 36.2814 120.56 37.24C120.043 38.1986 119.784 39.3257 119.784 40.6211C119.784 41.9166 120.043 43.0436 120.56 44.0023C121.103 44.9609 121.801 45.6993 122.654 46.2175C123.533 46.7098 124.464 46.9559 125.446 46.9559C126.454 46.9559 127.385 46.6968 128.238 46.1786C129.117 45.6605 129.815 44.922 130.332 43.9634C130.875 43.0048 131.147 41.8648 131.147 40.5434Z" fill="white"/>
<path d="M145.29 32.965C145.988 31.9805 146.945 31.1643 148.16 30.5166C149.401 29.843 150.81 29.5061 152.387 29.5061C154.222 29.5061 155.877 29.9595 157.35 30.8664C158.85 31.7732 160.026 33.0686 160.879 34.7527C161.758 36.4109 162.198 38.3411 162.198 40.5434C162.198 42.7457 161.758 44.7018 160.879 46.4118C160.026 48.0959 158.85 49.4043 157.35 50.337C155.877 51.2698 154.222 51.7361 152.387 51.7361C150.81 51.7361 149.414 51.4123 148.199 50.7645C147.009 50.1168 146.04 49.3007 145.29 48.3161V61.6464H139.861V29.8559H145.29V32.965ZM156.652 40.5434C156.652 39.248 156.381 38.1339 155.838 37.2011C155.321 36.2425 154.623 35.517 153.744 35.0248C152.891 34.5325 151.96 34.2864 150.952 34.2864C149.97 34.2864 149.039 34.5455 148.16 35.0636C147.307 35.5559 146.609 36.2814 146.066 37.24C145.549 38.1986 145.29 39.3257 145.29 40.6211C145.29 41.9166 145.549 43.0436 146.066 44.0023C146.609 44.9609 147.307 45.6993 148.16 46.2175C149.039 46.7098 149.97 46.9559 150.952 46.9559C151.96 46.9559 152.891 46.6968 153.744 46.1786C154.623 45.6605 155.321 44.922 155.838 43.9634C156.381 43.0048 156.652 41.8648 156.652 40.5434Z" fill="white"/>
<path d="M185.338 40.1548C185.338 40.932 185.286 41.6316 185.183 42.2534H169.478C169.607 43.808 170.15 45.0257 171.106 45.9066C172.063 46.7875 173.239 47.228 174.635 47.228C176.652 47.228 178.086 46.36 178.94 44.6241H184.795C184.175 46.6968 182.985 48.4068 181.227 49.7541C179.47 51.0755 177.311 51.7361 174.751 51.7361C172.683 51.7361 170.822 51.2827 169.167 50.3759C167.539 49.4432 166.259 48.1348 165.328 46.4507C164.424 44.7666 163.971 42.8234 163.971 40.6211C163.971 38.393 164.424 36.4368 165.328 34.7527C166.233 33.0686 167.5 31.7732 169.129 30.8664C170.757 29.9595 172.632 29.5061 174.751 29.5061C176.794 29.5061 178.616 29.9466 180.219 30.8275C181.848 31.7084 183.102 32.965 183.981 34.5973C184.886 36.2036 185.338 38.0561 185.338 40.1548ZM179.715 38.6002C179.689 37.2011 179.185 36.087 178.203 35.258C177.22 34.403 176.018 33.9755 174.596 33.9755C173.252 33.9755 172.115 34.39 171.184 35.2191C170.279 36.0223 169.723 37.1493 169.516 38.6002H179.715Z" fill="white"/>
<path d="M200.43 29.545C202.989 29.545 205.058 30.3611 206.635 31.9934C208.212 33.5998 209 35.8539 209 38.7557V51.3864H203.571V39.4941C203.571 37.7841 203.144 36.4757 202.291 35.5689C201.438 34.6361 200.275 34.1698 198.801 34.1698C197.302 34.1698 196.113 34.6361 195.234 35.5689C194.381 36.4757 193.954 37.7841 193.954 39.4941V51.3864H188.525V29.8559H193.954V32.5375C194.678 31.6048 195.596 30.8793 196.707 30.3611C197.845 29.817 199.086 29.545 200.43 29.545Z" fill="white"/>
</svg>
