<?xml version="1.0" encoding="UTF-8" standalone="no"?>
<!DOCTYPE svg PUBLIC "-//W3C//DTD SVG 1.1//EN" "http://www.w3.org/Graphics/SVG/1.1/DTD/svg11.dtd">
<svg version="1.1" xmlns="http://www.w3.org/2000/svg" xmlns:xlink="http://www.w3.org/1999/xlink" preserveAspectRatio="xMidYMid meet" viewBox="163.30643227671504 26.21248835041932 274.4464882025823 264.54713181356175" width="270.45" height="260.55"><defs><path d="M420.54 161.04C420.54 228.28 366.46 282.87 299.85 282.87C233.24 282.87 179.16 228.28 179.16 161.04C179.16 93.8 233.24 39.21 299.85 39.21C366.46 39.21 420.54 93.8 420.54 161.04Z" id="a1ekB5rLRc"></path><path d="M234.67 186.03C238.76 212.34 231.46 236.45 212.77 258.35C185.72 243.56 170.16 223 166.07 196.69C159.93 157.23 170.33 122.81 189.26 119.86C208.19 116.92 228.54 146.57 234.67 186.03Z" id="bby0pqMpP"></path><path d="M364.38 186.03C360.3 212.34 367.6 236.45 386.29 258.35C413.34 243.56 428.9 223 432.99 196.69C439.12 157.23 428.73 122.81 409.8 119.86C390.87 116.92 370.52 146.57 364.38 186.03Z" id="dIg9KL8gv"></path><path d="M316.43 110.73C316.43 147.9 286.25 178.07 249.08 178.07C211.91 178.07 184.71 139.07 176.95 110.73C171.78 91.84 171.78 66.13 176.95 33.6C207.38 32.8 231.42 35.19 249.08 40.78C275.58 49.17 316.43 73.56 316.43 110.73Z" id="a2DrS2AHqz"></path><path d="M280.34 112.13C280.34 149.3 310.52 179.48 347.69 179.48C384.85 179.48 412.06 140.47 419.82 112.13C424.99 93.24 424.99 67.53 419.82 35C389.39 34.2 365.35 36.6 347.69 42.18C321.19 50.57 280.34 74.97 280.34 112.13Z" id="ako3CcizK"></path><path d="M381.77 58.04C384.9 66.92 395.05 71.44 404.42 68.13C413.79 64.83 417.36 53.09 416.92 45.63C416.63 40.66 414.46 34.52 410.42 27.21C402.68 29.73 396.82 32.44 392.84 35.35C386.87 39.71 378.64 49.17 381.77 58.04Z" id="awVQlplGN"></path><path d="M290.21 120.89C290.21 149.1 313.11 172 341.32 172C369.53 172 390.19 142.39 396.07 120.89C400 106.55 400 87.03 396.07 62.34C372.98 61.73 354.73 63.55 341.32 67.79C321.21 74.16 290.21 92.67 290.21 120.89Z" id="a5uYCD19bF"></path><path d="M217.29 58.04C214.16 66.92 204.01 71.44 194.64 68.13C185.27 64.83 181.7 53.09 182.14 45.63C182.43 40.66 184.59 34.52 188.64 27.21C196.38 29.73 202.24 32.44 206.22 35.35C212.19 39.71 220.42 49.17 217.29 58.04Z" id="g1dDOOlYfE"></path><path d="M306.38 120.89C306.38 149.1 283.48 172 255.26 172C227.05 172 206.4 142.39 200.51 120.89C196.59 106.55 196.59 87.03 200.51 62.34C223.61 61.73 241.86 63.55 255.26 67.79C275.37 74.16 306.38 92.67 306.38 120.89Z" id="aAn7q524y"></path><path d="M217.98 120.54C217.98 99.6 234.99 82.59 255.93 82.59C276.88 82.59 293.89 99.6 293.89 120.54C293.89 141.49 276.88 158.5 255.93 158.5C234.99 158.5 217.98 141.49 217.98 120.54Z" id="a6vV9MbyE"></path><path d="M304.72 120.54C304.72 99.6 321.72 82.59 342.67 82.59C363.62 82.59 380.62 99.6 380.62 120.54C380.62 141.49 363.62 158.5 342.67 158.5C321.72 158.5 304.72 141.49 304.72 120.54Z" id="bpguD0XQF"></path><path d="M280.34 127.66C280.34 135.3 274.14 141.5 266.5 141.5C258.86 141.5 252.66 135.3 252.66 127.66C252.66 120.02 258.86 113.82 266.5 113.82C274.14 113.82 280.34 120.02 280.34 127.66Z" id="d76zxHKAKo"></path><path d="M344.59 129.31C344.59 136.04 339.12 141.5 332.39 141.5C325.66 141.5 320.2 136.04 320.2 129.31C320.2 122.58 325.66 117.11 332.39 117.11C339.12 117.11 344.59 122.58 344.59 129.31Z" id="b9KLhGADj"></path><path d="M340.39 124.89C340.39 127.1 338.6 128.89 336.39 128.89C334.18 128.89 332.39 127.1 332.39 124.89C332.39 122.68 334.18 120.89 336.39 120.89C338.6 120.89 340.39 122.68 340.39 124.89Z" id="g1mqx6522"></path><path d="M299.85 138.92L316.43 155.49L299.85 178.07L283.28 155.49L299.85 138.92Z" id="alx5p0WzI"></path><path d="M255.2 260.97C258.66 261.94 260.68 265.53 259.71 268.98C258.77 272.35 257.7 276.21 256.75 279.58C255.79 283.03 252.2 285.05 248.75 284.09C247.49 283.74 250 284.44 248.75 284.09C245.29 283.12 243.27 279.54 244.23 276.08C245.18 272.71 246.25 268.86 247.19 265.49C248.16 262.03 251.75 260.01 255.2 260.97C256.46 261.32 253.95 260.62 255.2 260.97Z" id="dovV9JcQs"></path><path d="M263.01 262.29C266.55 262.87 268.95 266.22 268.36 269.76C267.79 273.21 267.14 277.16 266.58 280.61C265.99 284.16 262.65 286.55 259.11 285.97C257.82 285.76 260.39 286.18 259.11 285.97C255.56 285.39 253.16 282.04 253.75 278.5C254.32 275.05 254.97 271.1 255.54 267.65C256.12 264.1 259.46 261.71 263.01 262.29C264.29 262.5 261.72 262.08 263.01 262.29Z" id="apvSQkTYR"></path><path d="M271.44 263.77C275.02 263.95 277.79 267 277.61 270.58C277.44 274.08 277.24 278.07 277.07 281.57C276.89 285.15 273.84 287.92 270.26 287.74C268.96 287.68 271.56 287.81 270.26 287.74C266.67 287.56 263.91 284.51 264.08 280.93C264.26 277.43 264.45 273.44 264.63 269.94C264.8 266.36 267.85 263.59 271.44 263.77C272.74 263.83 270.14 263.71 271.44 263.77Z" id="brlez34hl"></path><path d="M350.47 260.95C347.01 261.91 344.99 265.5 345.96 268.96C346.9 272.33 347.97 276.18 348.92 279.55C349.88 283.01 353.47 285.03 356.92 284.06C358.18 283.71 355.67 284.41 356.92 284.06C360.38 283.1 362.4 279.51 361.44 276.05C360.49 272.68 359.42 268.83 358.48 265.46C357.51 262 353.92 259.98 350.47 260.95C349.21 261.3 351.72 260.6 350.47 260.95Z" id="b2tbsb3sFt"></path><path d="M341.66 262.29C338.12 262.87 335.72 266.22 336.3 269.76C336.87 273.21 337.52 277.16 338.09 280.61C338.67 284.16 342.02 286.55 345.56 285.97C346.84 285.76 344.28 286.18 345.56 285.97C349.1 285.39 351.5 282.04 350.92 278.5C350.35 275.05 349.7 271.1 349.13 267.65C348.54 264.1 345.2 261.71 341.66 262.29C340.38 262.5 342.94 262.08 341.66 262.29Z" id="b6PuS5998O"></path><path d="M333.03 263.77C329.44 263.95 326.68 267 326.86 270.58C327.03 274.08 327.23 278.07 327.4 281.57C327.58 285.15 330.63 287.92 334.21 287.74C335.51 287.68 332.91 287.81 334.21 287.74C337.8 287.56 340.56 284.51 340.38 280.93C340.21 277.43 340.01 273.44 339.84 269.94C339.67 266.36 336.62 263.59 333.03 263.77C331.73 263.83 334.33 263.71 333.03 263.77Z" id="b5Ziz9j1Fi"></path><path d="M347.88 127.66C347.88 135.3 341.68 141.5 334.04 141.5C326.4 141.5 320.2 135.3 320.2 127.66C320.2 120.02 326.4 113.82 334.04 113.82C341.68 113.82 347.88 120.02 347.88 127.66Z" id="g17fSG2cKr"></path><path d="M299.85 138.92L316.43 155.49L299.85 178.07L299.85 138.92Z" id="ainxpW2Pw"></path><path d="M274.85 123.66C274.85 125.87 273.06 127.66 270.85 127.66C268.64 127.66 266.85 125.87 266.85 123.66C266.85 121.45 268.64 119.66 270.85 119.66C273.06 119.66 274.85 121.45 274.85 123.66Z" id="eyimibl0"></path><path d="M341.62 123.66C341.62 125.87 339.83 127.66 337.62 127.66C335.41 127.66 333.62 125.87 333.62 123.66C333.62 121.45 335.41 119.66 337.62 119.66C339.83 119.66 341.62 121.45 341.62 123.66Z" id="b1GXWQSoph"></path></defs><g><g><use xlink:href="#a1ekB5rLRc" opacity="1" fill="#3a81c3" fill-opacity="1"></use></g><g><use xlink:href="#bby0pqMpP" opacity="1" fill="#0b64a0" fill-opacity="1"></use></g><g><use xlink:href="#dIg9KL8gv" opacity="1" fill="#0b64a0" fill-opacity="1"></use></g><g><use xlink:href="#a2DrS2AHqz" opacity="1" fill="#3a81c3" fill-opacity="1"></use></g><g><use xlink:href="#ako3CcizK" opacity="1" fill="#3a81c3" fill-opacity="1"></use></g><g><use xlink:href="#awVQlplGN" opacity="1" fill="#3a81c3" fill-opacity="1"></use><g><use xlink:href="#awVQlplGN" opacity="1" fill-opacity="0" stroke="#fea343" stroke-width="0" stroke-opacity="1"></use></g></g><g><use xlink:href="#a5uYCD19bF" opacity="1" fill="#9fd5ff" fill-opacity="1"></use></g><g><use xlink:href="#g1dDOOlYfE" opacity="1" fill="#3a81c3" fill-opacity="1"></use></g><g><use xlink:href="#aAn7q524y" opacity="1" fill="#9fd5ff" fill-opacity="1"></use></g><g><use xlink:href="#a6vV9MbyE" opacity="1" fill="#ffffff" fill-opacity="1"></use></g><g><use xlink:href="#bpguD0XQF" opacity="1" fill="#ffffff" fill-opacity="1"></use></g><g><use xlink:href="#d76zxHKAKo" opacity="1" fill="#696a6f" fill-opacity="1"></use></g><g><use xlink:href="#b9KLhGADj" opacity="1" fill="#000000" fill-opacity="1"></use></g><g><use xlink:href="#g1mqx6522" opacity="1" fill="#ffffff" fill-opacity="1"></use></g><g><use xlink:href="#alx5p0WzI" opacity="1" fill="#ff783c" fill-opacity="1"></use><g><use xlink:href="#alx5p0WzI" opacity="1" fill-opacity="0" stroke="#ff9f00" stroke-width="0" stroke-opacity="1"></use></g></g><g><use xlink:href="#dovV9JcQs" opacity="1" fill="#d8612b" fill-opacity="1"></use></g><g><use xlink:href="#apvSQkTYR" opacity="1" fill="#d8612b" fill-opacity="1"></use></g><g><use xlink:href="#brlez34hl" opacity="1" fill="#d8612b" fill-opacity="1"></use></g><g><use xlink:href="#b2tbsb3sFt" opacity="1" fill="#d8612b" fill-opacity="1"></use></g><g><use xlink:href="#b6PuS5998O" opacity="1" fill="#d8612b" fill-opacity="1"></use></g><g><use xlink:href="#b5Ziz9j1Fi" opacity="1" fill="#d8612b" fill-opacity="1"></use></g><g><use xlink:href="#g17fSG2cKr" opacity="1" fill="#696a6f" fill-opacity="1"></use></g><g><use xlink:href="#ainxpW2Pw" opacity="1" fill="#d8612b" fill-opacity="1"></use><g><use xlink:href="#ainxpW2Pw" opacity="1" fill-opacity="0" stroke="#ff9f00" stroke-width="0" stroke-opacity="1"></use></g></g><g><use xlink:href="#eyimibl0" opacity="1" fill="#ffffff" fill-opacity="1"></use></g><g><use xlink:href="#b1GXWQSoph" opacity="1" fill="#ffffff" fill-opacity="1"></use></g></g></svg>