<?xml version="1.0" encoding="UTF-8" standalone="no"?>
<!DOCTYPE svg PUBLIC "-//W3C//DTD SVG 1.1//EN" "http://www.w3.org/Graphics/SVG/1.1/DTD/svg11.dtd">
<svg version="1.1" xmlns="http://www.w3.org/2000/svg" xmlns:xlink="http://www.w3.org/1999/xlink" preserveAspectRatio="xMidYMid meet" viewBox="-3.9166441652250796 26.21248835041932 486.57754182246526 313.332476697264" width="482.58" height="309.33"><defs><path d="M284.95 328.8C204.54 307.84 196.22 282.71 145.58 272.47C111.82 265.64 66.07 265.64 8.32 272.47C57.13 251.14 105.06 240.47 152.1 240.47C175.86 240.47 210.51 263.67 292.4 275.17C343.64 282.37 402.8 260.39 469.86 209.25C473.88 206.19 479.66 209.05 479.66 214.1C479.66 234.31 479.66 280.71 479.66 300.45C479.66 309.14 473.85 316.77 465.46 319.07C394.69 338.48 334.52 341.72 284.95 328.8Z" id="fwanVSFR1"></path><path d="M420.54 161.04C420.54 228.28 366.46 282.87 299.85 282.87C233.24 282.87 179.16 228.28 179.16 161.04C179.16 93.8 233.24 39.21 299.85 39.21C366.46 39.21 420.54 93.8 420.54 161.04Z" id="g1EmGIv92o"></path><path d="M234.67 186.03C238.76 212.34 231.46 236.45 212.77 258.35C185.72 243.56 170.16 223 166.07 196.69C159.93 157.23 170.33 122.81 189.26 119.86C208.19 116.92 228.54 146.57 234.67 186.03Z" id="dQkrTbwjA"></path><path d="M364.38 186.03C360.3 212.34 367.6 236.45 386.29 258.35C413.34 243.56 428.9 223 432.99 196.69C439.12 157.23 428.73 122.81 409.8 119.86C390.87 116.92 370.52 146.57 364.38 186.03Z" id="b1ZgNW2MQB"></path><path d="M316.43 110.73C316.43 147.9 286.25 178.07 249.08 178.07C211.91 178.07 184.71 139.07 176.95 110.73C171.78 91.84 171.78 66.13 176.95 33.6C207.38 32.8 231.42 35.19 249.08 40.78C275.58 49.17 316.43 73.56 316.43 110.73Z" id="d1q6G8jnDx"></path><path d="M280.34 112.13C280.34 149.3 310.52 179.48 347.69 179.48C384.85 179.48 412.06 140.47 419.82 112.13C424.99 93.24 424.99 67.53 419.82 35C389.39 34.2 365.35 36.6 347.69 42.18C321.19 50.57 280.34 74.97 280.34 112.13Z" id="a3Il8R8Xlm"></path><path d="M381.77 58.04C384.9 66.92 395.05 71.44 404.42 68.13C413.79 64.83 417.36 53.09 416.92 45.63C416.63 40.66 414.46 34.52 410.42 27.21C402.68 29.73 396.82 32.44 392.84 35.35C386.87 39.71 378.64 49.17 381.77 58.04Z" id="b5AVSFQ4LN"></path><path d="M290.21 120.89C290.21 149.1 313.11 172 341.32 172C369.53 172 390.19 142.39 396.07 120.89C400 106.55 400 87.03 396.07 62.34C372.98 61.73 354.73 63.55 341.32 67.79C321.21 74.16 290.21 92.67 290.21 120.89Z" id="a43vMh2nj"></path><path d="M217.29 58.04C214.16 66.92 204.01 71.44 194.64 68.13C185.27 64.83 181.7 53.09 182.14 45.63C182.43 40.66 184.59 34.52 188.64 27.21C196.38 29.73 202.24 32.44 206.22 35.35C212.19 39.71 220.42 49.17 217.29 58.04Z" id="axe1IH4P2"></path><path d="M306.38 120.89C306.38 149.1 283.48 172 255.26 172C227.05 172 206.4 142.39 200.51 120.89C196.59 106.55 196.59 87.03 200.51 62.34C223.61 61.73 241.86 63.55 255.26 67.79C275.37 74.16 306.38 92.67 306.38 120.89Z" id="bgbwVoaVz"></path><path d="M217.98 120.54C217.98 99.6 234.99 82.59 255.93 82.59C276.88 82.59 293.89 99.6 293.89 120.54C293.89 141.49 276.88 158.5 255.93 158.5C234.99 158.5 217.98 141.49 217.98 120.54Z" id="b7FgKu6ee"></path><path d="M304.72 120.54C304.72 99.6 321.72 82.59 342.67 82.59C363.62 82.59 380.62 99.6 380.62 120.54C380.62 141.49 363.62 158.5 342.67 158.5C321.72 158.5 304.72 141.49 304.72 120.54Z" id="b5znAx8eMT"></path><path d="M280.34 127.66C280.34 135.3 274.14 141.5 266.5 141.5C258.86 141.5 252.66 135.3 252.66 127.66C252.66 120.02 258.86 113.82 266.5 113.82C274.14 113.82 280.34 120.02 280.34 127.66Z" id="m3AkDMeQFe"></path><path d="M344.59 129.31C344.59 136.04 339.12 141.5 332.39 141.5C325.66 141.5 320.2 136.04 320.2 129.31C320.2 122.58 325.66 117.11 332.39 117.11C339.12 117.11 344.59 122.58 344.59 129.31Z" id="b3UbvBfKfF"></path><path d="M340.39 124.89C340.39 127.1 338.6 128.89 336.39 128.89C334.18 128.89 332.39 127.1 332.39 124.89C332.39 122.68 334.18 120.89 336.39 120.89C338.6 120.89 340.39 122.68 340.39 124.89Z" id="b3ntrGWJn"></path><path d="M299.85 138.92L316.43 155.49L299.85 178.07L283.28 155.49L299.85 138.92Z" id="beZMzhUHS"></path><path d="M255.2 260.97C258.66 261.94 260.68 265.53 259.71 268.98C258.77 272.35 257.7 276.21 256.75 279.58C255.79 283.03 252.2 285.05 248.75 284.09C247.49 283.74 250 284.44 248.75 284.09C245.29 283.12 243.27 279.54 244.23 276.08C245.18 272.71 246.25 268.86 247.19 265.49C248.16 262.03 251.75 260.01 255.2 260.97C256.46 261.32 253.95 260.62 255.2 260.97Z" id="a9381JuCI"></path><path d="M263.01 262.29C266.55 262.87 268.95 266.22 268.36 269.76C267.79 273.21 267.14 277.16 266.58 280.61C265.99 284.16 262.65 286.55 259.11 285.97C257.82 285.76 260.39 286.18 259.11 285.97C255.56 285.39 253.16 282.04 253.75 278.5C254.32 275.05 254.97 271.1 255.54 267.65C256.12 264.1 259.46 261.71 263.01 262.29C264.29 262.5 261.72 262.08 263.01 262.29Z" id="a4u3is75Cg"></path><path d="M271.44 263.77C275.02 263.95 277.79 267 277.61 270.58C277.44 274.08 277.24 278.07 277.07 281.57C276.89 285.15 273.84 287.92 270.26 287.74C268.96 287.68 271.56 287.81 270.26 287.74C266.67 287.56 263.91 284.51 264.08 280.93C264.26 277.43 264.45 273.44 264.63 269.94C264.8 266.36 267.85 263.59 271.44 263.77C272.74 263.83 270.14 263.71 271.44 263.77Z" id="coGRvfJTm"></path><path d="M350.47 260.95C347.01 261.91 344.99 265.5 345.96 268.96C346.9 272.33 347.97 276.18 348.92 279.55C349.88 283.01 353.47 285.03 356.92 284.06C358.18 283.71 355.67 284.41 356.92 284.06C360.38 283.1 362.4 279.51 361.44 276.05C360.49 272.68 359.42 268.83 358.48 265.46C357.51 262 353.92 259.98 350.47 260.95C349.21 261.3 351.72 260.6 350.47 260.95Z" id="h58N40rPT"></path><path d="M341.66 262.29C338.12 262.87 335.72 266.22 336.3 269.76C336.87 273.21 337.52 277.16 338.09 280.61C338.67 284.16 342.02 286.55 345.56 285.97C346.84 285.76 344.28 286.18 345.56 285.97C349.1 285.39 351.5 282.04 350.92 278.5C350.35 275.05 349.7 271.1 349.13 267.65C348.54 264.1 345.2 261.71 341.66 262.29C340.38 262.5 342.94 262.08 341.66 262.29Z" id="c17qFkna0G"></path><path d="M333.03 263.77C329.44 263.95 326.68 267 326.86 270.58C327.03 274.08 327.23 278.07 327.4 281.57C327.58 285.15 330.63 287.92 334.21 287.74C335.51 287.68 332.91 287.81 334.21 287.74C337.8 287.56 340.56 284.51 340.38 280.93C340.21 277.43 340.01 273.44 339.84 269.94C339.67 266.36 336.62 263.59 333.03 263.77C331.73 263.83 334.33 263.71 333.03 263.77Z" id="a6AY8FEjOF"></path><path d="M347.88 127.66C347.88 135.3 341.68 141.5 334.04 141.5C326.4 141.5 320.2 135.3 320.2 127.66C320.2 120.02 326.4 113.82 334.04 113.82C341.68 113.82 347.88 120.02 347.88 127.66Z" id="a1ozUYB5OR"></path><path d="M299.85 138.92L316.43 155.49L299.85 178.07L299.85 138.92Z" id="b2t86gmGS"></path><path d="M274.85 123.66C274.85 125.87 273.06 127.66 270.85 127.66C268.64 127.66 266.85 125.87 266.85 123.66C266.85 121.45 268.64 119.66 270.85 119.66C273.06 119.66 274.85 121.45 274.85 123.66Z" id="i15XLsRdrP"></path><path d="M341.62 123.66C341.62 125.87 339.83 127.66 337.62 127.66C335.41 127.66 333.62 125.87 333.62 123.66C333.62 121.45 335.41 119.66 337.62 119.66C339.83 119.66 341.62 121.45 341.62 123.66Z" id="a9dke5ReJ7"></path><path d="M22.57 230.28C32.56 241.63 37.36 253.76 33.29 257.35C29.21 260.94 17.79 254.63 7.8 243.28C1.14 235.71 -2.43 226.69 -2.92 216.21C7.41 218.02 15.91 222.71 22.57 230.28Z" id="a43VQwq4Rr"></path><path d="M38.72 284.59C43.86 275.89 50.56 270.32 53.69 272.16C56.82 274.01 55.18 282.57 50.05 291.28C46.62 297.08 41.63 301.23 35.08 303.71C34.08 296.77 35.29 290.4 38.72 284.59Z" id="a2d1gpLWbT"></path><path d="M55.94 228.32C54.18 239.61 56.05 249.29 60.1 249.92C64.16 250.55 68.88 241.9 70.63 230.6C71.8 223.07 70.42 215.87 66.47 209C60.62 214.35 57.11 220.79 55.94 228.32Z" id="c2HOHhSrNc"></path><path d="M103.59 278.32C100.17 272.53 95.7 268.82 93.62 270.05C91.54 271.27 92.63 276.98 96.05 282.78C98.33 286.64 101.65 289.4 106.02 291.05C106.68 286.43 105.87 282.19 103.59 278.32Z" id="b5G4TVpqdo"></path></defs><g><g><use xlink:href="#fwanVSFR1" opacity="1" fill="#693414" fill-opacity="1"></use><g><use xlink:href="#fwanVSFR1" opacity="1" fill-opacity="0" stroke="#c80709" stroke-width="0" stroke-opacity="1"></use></g></g><g><use xlink:href="#g1EmGIv92o" opacity="1" fill="#3a81c3" fill-opacity="1"></use></g><g><use xlink:href="#dQkrTbwjA" opacity="1" fill="#0b64a0" fill-opacity="1"></use></g><g><use xlink:href="#b1ZgNW2MQB" opacity="1" fill="#0b64a0" fill-opacity="1"></use></g><g><use xlink:href="#d1q6G8jnDx" opacity="1" fill="#3a81c3" fill-opacity="1"></use></g><g><use xlink:href="#a3Il8R8Xlm" opacity="1" fill="#3a81c3" fill-opacity="1"></use></g><g><use xlink:href="#b5AVSFQ4LN" opacity="1" fill="#3a81c3" fill-opacity="1"></use><g><use xlink:href="#b5AVSFQ4LN" opacity="1" fill-opacity="0" stroke="#fea343" stroke-width="0" stroke-opacity="1"></use></g></g><g><use xlink:href="#a43vMh2nj" opacity="1" fill="#9fd5ff" fill-opacity="1"></use></g><g><use xlink:href="#axe1IH4P2" opacity="1" fill="#3a81c3" fill-opacity="1"></use></g><g><use xlink:href="#bgbwVoaVz" opacity="1" fill="#9fd5ff" fill-opacity="1"></use></g><g><use xlink:href="#b7FgKu6ee" opacity="1" fill="#ffffff" fill-opacity="1"></use></g><g><use xlink:href="#b5znAx8eMT" opacity="1" fill="#ffffff" fill-opacity="1"></use></g><g><use xlink:href="#m3AkDMeQFe" opacity="1" fill="#696a6f" fill-opacity="1"></use></g><g><use xlink:href="#b3UbvBfKfF" opacity="1" fill="#000000" fill-opacity="1"></use></g><g><use xlink:href="#b3ntrGWJn" opacity="1" fill="#ffffff" fill-opacity="1"></use></g><g><use xlink:href="#beZMzhUHS" opacity="1" fill="#ff783c" fill-opacity="1"></use><g><use xlink:href="#beZMzhUHS" opacity="1" fill-opacity="0" stroke="#ff9f00" stroke-width="0" stroke-opacity="1"></use></g></g><g><use xlink:href="#a9381JuCI" opacity="1" fill="#d8612b" fill-opacity="1"></use></g><g><use xlink:href="#a4u3is75Cg" opacity="1" fill="#d8612b" fill-opacity="1"></use></g><g><use xlink:href="#coGRvfJTm" opacity="1" fill="#d8612b" fill-opacity="1"></use></g><g><use xlink:href="#h58N40rPT" opacity="1" fill="#d8612b" fill-opacity="1"></use></g><g><use xlink:href="#c17qFkna0G" opacity="1" fill="#d8612b" fill-opacity="1"></use></g><g><use xlink:href="#a6AY8FEjOF" opacity="1" fill="#d8612b" fill-opacity="1"></use></g><g><use xlink:href="#a1ozUYB5OR" opacity="1" fill="#696a6f" fill-opacity="1"></use></g><g><use xlink:href="#b2t86gmGS" opacity="1" fill="#d8612b" fill-opacity="1"></use><g><use xlink:href="#b2t86gmGS" opacity="1" fill-opacity="0" stroke="#ff9f00" stroke-width="0" stroke-opacity="1"></use></g></g><g><use xlink:href="#i15XLsRdrP" opacity="1" fill="#ffffff" fill-opacity="1"></use></g><g><use xlink:href="#a9dke5ReJ7" opacity="1" fill="#ffffff" fill-opacity="1"></use></g><g><use xlink:href="#a43VQwq4Rr" opacity="1" fill="#7bc334" fill-opacity="1"></use></g><g><use xlink:href="#a2d1gpLWbT" opacity="1" fill="#7bc334" fill-opacity="1"></use></g><g><use xlink:href="#c2HOHhSrNc" opacity="1" fill="#7bc334" fill-opacity="1"></use></g><g><use xlink:href="#b5G4TVpqdo" opacity="1" fill="#7bc334" fill-opacity="1"></use></g></g></svg>