<?xml version="1.0" encoding="UTF-8" standalone="no"?>
<!DOCTYPE svg PUBLIC "-//W3C//DTD SVG 1.1//EN" "http://www.w3.org/Graphics/SVG/1.1/DTD/svg11.dtd">
<svg version="1.1" xmlns="http://www.w3.org/2000/svg" xmlns:xlink="http://www.w3.org/1999/xlink" preserveAspectRatio="xMidYMid meet" viewBox="35.22633504026351 4.2252401728320805 542.851417217953 290.534379991149" width="538.85" height="286.53"><defs><path d="M420.54 161.04C420.54 228.28 366.46 282.87 299.85 282.87C233.24 282.87 179.16 228.28 179.16 161.04C179.16 93.8 233.24 39.21 299.85 39.21C366.46 39.21 420.54 93.8 420.54 161.04Z" id="a1PDRRF1XD"></path><path d="M341.66 266.29C338.12 266.87 335.72 270.22 336.3 273.76C336.87 277.21 337.52 281.16 338.09 284.61C338.67 288.16 342.02 290.55 345.56 289.97C346.84 289.76 344.28 290.18 345.56 289.97C349.1 289.39 351.5 286.04 350.92 282.5C350.35 279.05 349.7 275.1 349.13 271.65C348.54 268.1 345.2 265.71 341.66 266.29C340.38 266.5 342.94 266.08 341.66 266.29Z" id="a1s4Z6x3Aw"></path><path d="M350.47 264.95C347.01 265.91 344.99 269.5 345.96 272.96C346.9 276.33 347.97 280.18 348.92 283.55C349.88 287.01 353.47 289.03 356.92 288.06C358.18 287.71 355.67 288.41 356.92 288.06C360.38 287.1 362.4 283.51 361.44 280.05C360.49 276.68 359.42 272.83 358.48 269.46C357.51 266 353.92 263.98 350.47 264.95C349.21 265.3 351.72 264.6 350.47 264.95Z" id="bemAe3ear"></path><path d="M344.59 138.31C344.59 145.04 339.12 150.5 332.39 150.5C325.66 150.5 320.2 145.04 320.2 138.31C320.2 131.58 325.66 126.11 332.39 126.11C339.12 126.11 344.59 131.58 344.59 138.31Z" id="aJHmpD16N"></path><path d="M276.15 134.79C276.15 137 274.35 138.79 272.15 138.79C269.94 138.79 268.15 137 268.15 134.79C268.15 132.59 269.94 130.79 272.15 130.79C274.35 130.79 276.15 132.59 276.15 134.79Z" id="bmljDElpv"></path><path d="M340.39 133.89C340.39 136.1 338.6 137.89 336.39 137.89C334.18 137.89 332.39 136.1 332.39 133.89C332.39 131.68 334.18 129.89 336.39 129.89C338.6 129.89 340.39 131.68 340.39 133.89Z" id="b7h2ldImk"></path><path d="M217.29 67.04C214.16 75.92 204.01 80.44 194.64 77.13C185.27 73.83 181.7 62.09 182.14 54.63C182.43 49.66 184.59 43.52 188.64 36.21C196.38 38.73 202.24 41.44 206.22 44.35C212.19 48.71 220.42 58.17 217.29 67.04Z" id="aARIFturb"></path><path d="M381.77 67.04C384.9 75.92 395.05 80.44 404.42 77.13C413.79 73.83 417.36 62.09 416.92 54.63C416.63 49.66 414.46 43.52 410.42 36.21C402.68 38.73 396.82 41.44 392.84 44.35C386.87 48.71 378.64 58.17 381.77 67.04Z" id="g8VP8NhkHC"></path><path d="M255.2 264.97C258.66 265.94 260.68 269.53 259.71 272.98C258.77 276.35 257.7 280.21 256.75 283.58C255.79 287.03 252.2 289.05 248.75 288.09C247.49 287.74 250 288.44 248.75 288.09C245.29 287.12 243.27 283.54 244.23 280.08C245.18 276.71 246.25 272.86 247.19 269.49C248.16 266.03 251.75 264.01 255.2 264.97C256.46 265.32 253.95 264.62 255.2 264.97Z" id="g1u3FLlciW"></path><path d="M263.01 266.29C266.55 266.87 268.95 270.22 268.36 273.76C267.79 277.21 267.14 281.16 266.58 284.61C265.99 288.16 262.65 290.55 259.11 289.97C257.82 289.76 260.39 290.18 259.11 289.97C255.56 289.39 253.16 286.04 253.75 282.5C254.32 279.05 254.97 275.1 255.54 271.65C256.12 268.1 259.46 265.71 263.01 266.29C264.29 266.5 261.72 266.08 263.01 266.29Z" id="aulMA5y4g"></path><path d="M271.44 267.77C275.02 267.95 277.79 271 277.61 274.58C277.44 278.08 277.24 282.07 277.07 285.57C276.89 289.15 273.84 291.92 270.26 291.74C268.96 291.68 271.56 291.81 270.26 291.74C266.67 291.56 263.91 288.51 264.08 284.93C264.26 281.43 264.45 277.44 264.63 273.94C264.8 270.36 267.85 267.59 271.44 267.77C272.74 267.83 270.14 267.71 271.44 267.77Z" id="aKOVEQL6l"></path><path d="M333.03 267.77C329.44 267.95 326.68 271 326.86 274.58C327.03 278.08 327.23 282.07 327.4 285.57C327.58 289.15 330.63 291.92 334.21 291.74C335.51 291.68 332.91 291.81 334.21 291.74C337.8 291.56 340.56 288.51 340.38 284.93C340.21 281.43 340.01 277.44 339.84 273.94C339.67 270.36 336.62 267.59 333.03 267.77C331.73 267.83 334.33 267.71 333.03 267.77Z" id="hCniSHRcY"></path><path d="M240.71 190.64C247.81 214.85 243.39 238.57 227.44 261.79C198.97 251.59 181.19 234.39 174.09 210.18C163.44 173.87 169.72 140.01 188.1 134.62C206.49 129.23 230.06 154.33 240.71 190.64Z" id="c3BMVMn9Lo"></path><path d="M367.23 182.87C360.13 207.08 364.56 230.79 380.51 254.01C408.97 243.82 426.76 226.62 433.86 202.41C444.51 166.09 438.23 132.23 419.84 126.84C401.45 121.45 377.88 146.55 367.23 182.87Z" id="bLTtjAiUD"></path><path d="M316.43 121.13C316.43 158.3 286.25 188.48 249.08 188.48C211.91 188.48 184.71 149.47 176.95 121.13C171.78 102.24 171.78 76.53 176.95 44C207.38 43.2 231.42 45.6 249.08 51.18C275.58 59.57 316.43 83.97 316.43 121.13Z" id="acMlcfUpt"></path><path d="M280.34 121.13C280.34 158.3 310.52 188.48 347.69 188.48C384.85 188.48 412.06 149.47 419.82 121.13C424.99 102.24 424.99 76.53 419.82 44C389.39 43.2 365.35 45.6 347.69 51.18C321.19 59.57 280.34 83.97 280.34 121.13Z" id="a2tPrkkrh"></path><path d="M290.21 129.89C290.21 158.1 313.11 181 341.32 181C369.53 181 390.19 151.39 396.07 129.89C400 115.55 400 96.03 396.07 71.34C372.98 70.73 354.73 72.55 341.32 76.79C321.21 83.16 290.21 101.67 290.21 129.89Z" id="b40OKGqi5A"></path><path d="M306.56 129.89C306.56 158.1 283.66 181 255.44 181C227.23 181 206.58 151.39 200.69 129.89C196.77 115.55 196.77 96.03 200.69 71.34C223.79 70.73 242.04 72.55 255.44 76.79C275.55 83.16 306.56 101.67 306.56 129.89Z" id="b2P8Kaz7fO"></path><path d="M217.85 129.54C217.85 108.6 234.86 91.59 255.81 91.59C276.75 91.59 293.76 108.6 293.76 129.54C293.76 150.49 276.75 167.5 255.81 167.5C234.86 167.5 217.85 150.49 217.85 129.54Z" id="keNmAPNXE"></path><path d="M299.85 147.92L316.43 164.49L299.85 187.07L283.28 164.49L299.85 147.92Z" id="b1JcRHbrE9"></path><path d="M304.72 129.54C304.72 108.6 321.72 91.59 342.67 91.59C363.62 91.59 380.62 108.6 380.62 129.54C380.62 150.49 363.62 167.5 342.67 167.5C321.72 167.5 304.72 150.49 304.72 129.54Z" id="c2UPM3dBU4"></path><path d="M299.85 147.92L316.43 164.49L299.85 187.07L299.85 147.92Z" id="d3Z4ahLR0K"></path><path d="M280.34 136.66C280.34 144.3 274.14 150.5 266.5 150.5C258.86 150.5 252.66 144.3 252.66 136.66C252.66 129.02 258.86 122.82 266.5 122.82C274.14 122.82 280.34 129.02 280.34 136.66Z" id="k6x0foIIZ"></path><path d="M347.88 136.66C347.88 144.3 341.68 150.5 334.04 150.5C326.4 150.5 320.2 144.3 320.2 136.66C320.2 129.02 326.4 122.82 334.04 122.82C341.68 122.82 347.88 129.02 347.88 136.66Z" id="aGIzgwSTu"></path><path d="M274.85 132.66C274.85 134.87 273.06 136.66 270.85 136.66C268.64 136.66 266.85 134.87 266.85 132.66C266.85 130.45 268.64 128.66 270.85 128.66C273.06 128.66 274.85 130.45 274.85 132.66Z" id="c6twD6tCXG"></path><path d="M341.62 132.66C341.62 134.87 339.83 136.66 337.62 136.66C335.41 136.66 333.62 134.87 333.62 132.66C333.62 130.45 335.41 128.66 337.62 128.66C339.83 128.66 341.62 130.45 341.62 132.66Z" id="b7jG7WYa2w"></path><path d="M567.75 60.52C570.08 56.91 571.37 54.9 571.63 54.5C572.52 53.12 572.27 51.3 571.04 50.21C570.82 50.03 565.69 45.55 558.07 42.38C549.57 38.86 541.3 38.36 533.86 40.86C533.08 33.05 529.21 25.72 522.5 19.43C516.48 13.79 510.29 10.95 510.03 10.84C508.53 10.16 506.77 10.68 505.88 12.06C505.62 12.46 504.32 14.47 501.99 18.08C498.5 15.82 496.57 14.57 496.18 14.32C494.64 13.33 492.59 13.77 491.6 15.31C488.21 20.56 461.13 62.52 457.74 67.76C457.16 68.66 457.05 69.79 457.45 70.79C457.85 71.78 458.7 72.53 459.75 72.78C460 72.84 485.45 79.19 496.43 96.32C496.95 97.13 497.79 97.67 498.74 97.81C518.82 100.75 535.14 121.34 535.3 121.54C535.53 121.84 535.8 122.09 536.11 122.29C536.68 122.66 537.36 122.85 538.06 122.82C539.13 122.77 540.11 122.2 540.69 121.3C544.08 116.06 571.16 74.1 574.55 68.85C575.54 67.31 575.1 65.26 573.56 64.27C572.79 63.77 570.85 62.52 567.75 60.52ZM495.37 21.69L498.4 23.64C484.04 45.89 476.07 58.24 474.47 60.71C473.95 61.52 473.81 62.52 474.08 63.44C474.35 64.37 475.01 65.13 475.89 65.53C476.06 65.6 489.22 71.75 494.14 83.51C484.46 74.63 472.18 69.75 465.71 67.63C469.67 61.51 479.55 46.19 495.37 21.69ZM491.1 68.09C488.53 65.68 485.94 63.79 483.78 62.39C483.14 61.98 482.54 61.61 481.99 61.29C483.84 58.42 493.11 44.06 509.8 18.21C509.8 18.21 509.8 18.21 509.8 18.21C515.3 21.42 527.95 30.39 527.37 44.81C525.65 47.48 517.05 60.79 501.58 84.76C498.15 76.97 494.65 71.42 491.1 68.09ZM564.41 53.47C561.63 57.77 539.39 92.23 536.61 96.54C534.33 94.94 530.87 92.79 526.66 91.04C519.91 88.24 513.31 87.35 507.15 88.35C508.87 85.69 517.46 72.37 532.93 48.41C550.45 49.33 560.94 51.01 564.41 53.47ZM535.25 103.84C535.98 104.48 536.94 104.77 537.9 104.64C538.85 104.51 539.7 103.96 540.23 103.15C541.82 100.68 549.8 88.33 564.15 66.08L567.18 68.04C549.39 95.61 539.51 110.92 537.53 113.98C532.94 108.96 523.43 99.78 511.34 94.61C524.09 94.25 535.12 103.72 535.25 103.84Z" id="arWFYC7JB"></path><path d="M98.71 90.68C95.59 89.47 92.59 88.03 90.03 85.79C87.11 83.23 84.18 90.41 86.81 92.72C90.39 95.84 94.92 97.59 99.32 99.19C101.12 99.84 102.52 97.45 102.88 96.09C105.24 87.49 107.08 78.74 111.01 70.7C112.89 66.85 108.68 62.78 106.44 67.38C102.83 74.78 100.81 82.75 98.71 90.68Z" id="a4MoSNzSwy"></path><path d="M82.73 12.55C81.16 11.91 79.35 11.88 77.71 12.67C77.33 12.86 75.46 13.76 72.1 15.38C71.82 14.8 71.67 14.48 71.64 14.42C70.63 12.34 66.95 11.75 64.34 13.01C61.73 14.26 59.9 17.51 60.91 19.59C60.94 19.66 61.09 19.98 61.37 20.55C58 22.18 56.13 23.08 55.76 23.26C54.12 24.05 53.01 25.49 52.53 27.12C51.08 27.82 39.42 33.44 37.97 34.14C36.42 34.89 35.79 36.75 36.54 38.3C40.53 46.58 72.45 112.76 76.44 121.03C77.19 122.59 79.03 123.26 80.58 122.51C86.52 119.65 133.98 96.76 139.91 93.9C141.45 93.16 142.1 91.3 141.34 89.73C137.35 81.46 105.44 15.28 101.45 7.01C100.7 5.45 98.84 4.79 97.3 5.53C94.38 6.93 84.19 11.85 82.73 12.55ZM80.65 115.53L43.47 38.44L51.54 34.55L51.54 34.55C53.08 33.81 53.94 33.39 54.11 33.31C55.94 35.17 58.77 35.79 61.23 34.6C61.97 34.25 65.62 32.49 72.21 29.31C78.79 26.14 82.45 24.37 83.18 24.02C85.64 22.84 86.92 20.23 86.6 17.64C86.77 17.56 87.63 17.14 89.17 16.4L89.17 16.4L97.22 12.52L134.4 89.61L134.4 89.61L80.65 115.53Z" id="c8h12nq3f"></path><path d="M96.7 24.7C96.7 24.7 96.7 24.7 96.7 24.7C97.96 27.34 98.67 28.8 98.81 29.09C98.81 29.09 98.81 29.09 98.81 29.09C72.8 41.63 58.35 48.6 55.46 49.99C55.46 49.99 55.46 49.99 55.46 49.99C54.2 47.36 53.49 45.9 53.35 45.61C53.35 45.61 53.35 45.61 53.35 45.61C79.36 33.07 93.81 26.1 96.7 24.7Z" id="cx6HqM2Ma"></path><path d="M101.35 34.35C101.35 34.35 101.35 34.35 101.35 34.35C102.62 36.98 103.32 38.44 103.46 38.74C103.46 38.74 103.46 38.74 103.46 38.74C77.45 51.28 63.01 58.24 60.12 59.64C60.12 59.64 60.12 59.64 60.12 59.64C58.85 57.01 58.14 55.55 58 55.25C58 55.25 58 55.25 58 55.25C84.01 42.71 98.46 35.74 101.35 34.35Z" id="bqAA8uCfT"></path><path d="M106 44C106 44 106 44 106 44C107.27 46.63 107.97 48.09 108.11 48.38C108.11 48.38 108.11 48.38 108.11 48.38C82.11 60.92 67.66 67.89 64.77 69.28C64.77 69.28 64.77 69.28 64.77 69.28C63.5 66.65 62.79 65.19 62.65 64.9C62.65 64.9 62.65 64.9 62.65 64.9C88.66 52.36 103.11 45.39 106 44Z" id="c1qH2wn79M"></path><path d="M110.65 53.64C110.65 53.64 110.65 53.64 110.65 53.64C111.92 56.27 112.62 57.74 112.77 58.03C112.77 58.03 112.77 58.03 112.77 58.03C86.76 70.57 72.31 77.54 69.42 78.93C69.42 78.93 69.42 78.93 69.42 78.93C68.15 76.3 67.45 74.84 67.31 74.55C67.31 74.55 67.31 74.55 67.31 74.55C93.31 62 107.76 55.04 110.65 53.64Z" id="bLLkFlauX"></path></defs><g><g><use xlink:href="#a1PDRRF1XD" opacity="1" fill="#312783" fill-opacity="1"></use></g><g><use xlink:href="#a1s4Z6x3Aw" opacity="1" fill="#d8612b" fill-opacity="1"></use></g><g><use xlink:href="#bemAe3ear" opacity="1" fill="#d8612b" fill-opacity="1"></use></g><g><use xlink:href="#aJHmpD16N" opacity="1" fill="#000000" fill-opacity="1"></use></g><g><use xlink:href="#bmljDElpv" opacity="1" fill="#ffffff" fill-opacity="1"></use></g><g><use xlink:href="#b7h2ldImk" opacity="1" fill="#ffffff" fill-opacity="1"></use></g><g><use xlink:href="#aARIFturb" opacity="1" fill="#574ea5" fill-opacity="1"></use></g><g><use xlink:href="#g8VP8NhkHC" opacity="1" fill="#574ea5" fill-opacity="1"></use></g><g><use xlink:href="#g1u3FLlciW" opacity="1" fill="#d8612b" fill-opacity="1"></use></g><g><use xlink:href="#aulMA5y4g" opacity="1" fill="#d8612b" fill-opacity="1"></use></g><g><use xlink:href="#aKOVEQL6l" opacity="1" fill="#d8612b" fill-opacity="1"></use></g><g><use xlink:href="#hCniSHRcY" opacity="1" fill="#d8612b" fill-opacity="1"></use></g><g><use xlink:href="#c3BMVMn9Lo" opacity="1" fill="#1c1365" fill-opacity="1"></use></g><g><use xlink:href="#bLTtjAiUD" opacity="1" fill="#1c1365" fill-opacity="1"></use></g><g><use xlink:href="#acMlcfUpt" opacity="1" fill="#574ea5" fill-opacity="1"></use></g><g><use xlink:href="#a2tPrkkrh" opacity="1" fill="#574ea5" fill-opacity="1"></use></g><g><use xlink:href="#b40OKGqi5A" opacity="1" fill="#080047" fill-opacity="1"></use></g><g><use xlink:href="#b2P8Kaz7fO" opacity="1" fill="#080047" fill-opacity="1"></use></g><g><use xlink:href="#keNmAPNXE" opacity="1" fill="#ffffff" fill-opacity="1"></use></g><g><use xlink:href="#b1JcRHbrE9" opacity="1" fill="#ff783c" fill-opacity="1"></use><g><use xlink:href="#b1JcRHbrE9" opacity="1" fill-opacity="0" stroke="#ff9f00" stroke-width="0" stroke-opacity="1"></use></g></g><g><use xlink:href="#c2UPM3dBU4" opacity="1" fill="#ffffff" fill-opacity="1"></use></g><g><use xlink:href="#d3Z4ahLR0K" opacity="1" fill="#d8612b" fill-opacity="1"></use><g><use xlink:href="#d3Z4ahLR0K" opacity="1" fill-opacity="0" stroke="#ff9f00" stroke-width="0" stroke-opacity="1"></use></g></g><g><use xlink:href="#k6x0foIIZ" opacity="1" fill="#000000" fill-opacity="1"></use></g><g><use xlink:href="#aGIzgwSTu" opacity="1" fill="#000000" fill-opacity="1"></use></g><g><use xlink:href="#c6twD6tCXG" opacity="1" fill="#ffffff" fill-opacity="1"></use></g><g><use xlink:href="#b7jG7WYa2w" opacity="1" fill="#ffffff" fill-opacity="1"></use></g><g><use xlink:href="#arWFYC7JB" opacity="1" fill="#ffffff" fill-opacity="1"></use><g><use xlink:href="#arWFYC7JB" opacity="1" fill-opacity="0" stroke="#000000" stroke-width="1" stroke-opacity="0"></use></g></g><g><use xlink:href="#a4MoSNzSwy" opacity="1" fill="#ffffff" fill-opacity="1"></use><g><use xlink:href="#a4MoSNzSwy" opacity="1" fill-opacity="0" stroke="#000000" stroke-width="1" stroke-opacity="0"></use></g></g><g><use xlink:href="#c8h12nq3f" opacity="1" fill="#ffffff" fill-opacity="1"></use><g><use xlink:href="#c8h12nq3f" opacity="1" fill-opacity="0" stroke="#000000" stroke-width="1" stroke-opacity="0"></use></g></g><g><use xlink:href="#cx6HqM2Ma" opacity="1" fill="#ffffff" fill-opacity="1"></use><g><use xlink:href="#cx6HqM2Ma" opacity="1" fill-opacity="0" stroke="#000000" stroke-width="1" stroke-opacity="0"></use></g></g><g><use xlink:href="#bqAA8uCfT" opacity="1" fill="#ffffff" fill-opacity="1"></use><g><use xlink:href="#bqAA8uCfT" opacity="1" fill-opacity="0" stroke="#000000" stroke-width="1" stroke-opacity="0"></use></g></g><g><use xlink:href="#c1qH2wn79M" opacity="1" fill="#ffffff" fill-opacity="1"></use><g><use xlink:href="#c1qH2wn79M" opacity="1" fill-opacity="0" stroke="#000000" stroke-width="1" stroke-opacity="0"></use></g></g><g><use xlink:href="#bLLkFlauX" opacity="1" fill="#ffffff" fill-opacity="1"></use><g><use xlink:href="#bLLkFlauX" opacity="1" fill-opacity="0" stroke="#000000" stroke-width="1" stroke-opacity="0"></use></g></g></g></svg>